# xmcd
#
# Track frame offsets: 
#        150
#        16650
#        37493
#        66900
#        87675
#        109050
#        128250
#        147000
#        164850
#        178575
#        191775
#        209250
#        224025
#        246524
#        269325
#        285975
#        297600
#
# Disc length: 4123 seconds
#
# Revision: 0
# Processed by: cddbd v1.5.2PL0 Copyright (c) Steve Scherf et al.
# Submitted via: ExactAudioCopy v0.99pb4
#
DISCID=19101911
DTITLE=Various Artist - Настоящий Блюз 2
DYEAR=2008
DGENRE=Blues
TTITLE0=Stevie Ray Vaughan And Double Trouble/Prde And Joy
TTITLE1=Champion Jack Dupree/Gutbucket Blues (Ugly Woman)
TTITLE2=Buddy Guy/Miss Ida B
TTITLE3=Keb'Mo'/Soon As I Get Paid
TTITLE4=Taj Mahal/Leaving Trunk
TTITLE5=Willie Dixon/The Seventh Son
TTITLE6=John Mayall and The Bluesbreakers/When The Devil Starts Crying
TTITLE7=Muddy Waters/I'm Your Hoochie Man
TTITLE8=Otis Spann/Got My Mojo Workin'
TTITLE9=Fleetwood Mac/I Loved Another Woman
TTITLE10=Bukka White/Drifting Blues (Master Version Without Reverb)
TTITLE11=Mickael Bloomfield/Farther Up The Road (Live)
TTITLE12=Elmore James/Something Inside Of Me
TTITLE13=Johnny Winter/Highway 61 Revisited
TTITLE14=Etta James/Hound Dog
TTITLE15=J.J. Cale/Shanghaid
TTITLE16=Robert Johnson/Me And The Devil Blues
EXTD=
EXTT0=
EXTT1=
EXTT2=
EXTT3=
EXTT4=
EXTT5=
EXTT6=
EXTT7=
EXTT8=
EXTT9=
EXTT10=
EXTT11=
EXTT12=
EXTT13=
EXTT14=
EXTT15=
EXTT16=
PLAYORDER=
